<svg xmlns="http://www.w3.org/2000/svg" viewBox="0 0 272 272"><defs><style>.cls-1{fill:#212121;}.cls-2{fill:#e3cc57;}</style></defs><g id="OBJECTS"><path class="cls-1" d="M252.25,258.49H19.75a1,1,0,0,1-1-1v-241a1,1,0,0,1,1-1h232.5a1,1,0,0,1,1,1v241A1,1,0,0,1,252.25,258.49Zm-231.5-2h230.5v-239H20.75Z"/><path class="cls-1" d="M19.75,258.49A1,1,0,0,1,19,256.8l84.21-87.58a1,1,0,1,1,1.44,1.39l-84.2,87.57A1,1,0,0,1,19.75,258.49Z"/><path class="cls-1" d="M135.83,258l-.21,0a1,1,0,0,1-.79-.88A66.68,66.68,0,0,0,127,230.32a27.85,27.85,0,0,1-1.42-24.06,25.49,25.49,0,0,0,1.15-16.16l-1.84-7.3a1,1,0,0,1,.25-.94,1,1,0,0,1,.94-.28,51.45,51.45,0,0,0,8,1.3,44,44,0,0,0,10.32-.4,1,1,0,0,1,.78.18,1,1,0,0,1,.39.69c.79,6.86-.51,14.68-3.88,23.23a25.75,25.75,0,0,0-.46,16.75h0c5,17.08-4.14,33.46-4.53,34.15A1,1,0,0,1,135.83,258Zm-8.59-74.13,1.44,5.74A27.45,27.45,0,0,1,127.45,207a25.48,25.48,0,0,0-1.89,8.47,25.75,25.75,0,0,0,3.21,13.85,66.85,66.85,0,0,1,7.67,24.06c2.37-5.49,6.39-17.48,2.87-29.51a27.65,27.65,0,0,1,.52-18c3.07-7.82,4.37-15,3.86-21.23a48.42,48.42,0,0,1-9.71.24A44.76,44.76,0,0,1,127.24,183.87Z"/><path class="cls-2" d="M110.43,175.43c-5,7-12.76,11.53-19,14.41A26.91,26.91,0,0,0,79,202.05c-8.1,15.57-26.31,21-26.31,21a67.47,67.47,0,0,0,13.1-25.12A26.94,26.94,0,0,1,80.9,180.28,26.65,26.65,0,0,0,93.36,169l4.15-7.3C101,166.91,105.11,172,110.43,175.43Z"/><path class="cls-1" d="M52.69,224.06a1,1,0,0,1-.78-1.63,66.66,66.66,0,0,0,12.92-24.74A27.94,27.94,0,0,1,80.5,179.37a25.91,25.91,0,0,0,12-10.86l4.15-7.3a1,1,0,0,1,1.7-.06c4.13,6.23,8.14,10.5,12.63,13.44a1,1,0,0,1,.44.66,1,1,0,0,1-.17.76c-4.13,5.8-10.47,10.62-19.38,14.74a25.86,25.86,0,0,0-12,11.76C71.69,218.27,53.74,223.79,53,224A1.35,1.35,0,0,1,52.69,224.06Zm44.89-60.47-3.35,5.91A27.89,27.89,0,0,1,81.3,181.2a25.9,25.9,0,0,0-14.54,17,67,67,0,0,1-11.14,22.69c5.51-2.33,16.72-8.2,22.49-19.3A27.84,27.84,0,0,1,91,188.93c8.16-3.76,14-8.11,18-13.26A46.54,46.54,0,0,1,97.58,163.59Z"/><path class="cls-1" d="M125.74,92.47a1,1,0,0,1-1-.88c-1.07-8.94,1.74-18.18,4.28-24.36a25.68,25.68,0,0,0,.85-16.74c-4.62-17.18,4.86-33.37,5.26-34a1,1,0,0,1,1.1-.46,1,1,0,0,1,.76.91,67,67,0,0,0,7.24,27,27.6,27.6,0,0,1,3.14,15,27.9,27.9,0,0,1-2.26,9.11A25.88,25.88,0,0,0,143.63,84l1.43,6.19a1,1,0,0,1-1.15,1.21,31.82,31.82,0,0,0-3.6-.33L139,91c-4.57-.33-8.61.45-13,1.44Zm9.58-71.94c-2.49,5.43-6.76,17.34-3.5,29.44a27.72,27.72,0,0,1-.94,18c-2.35,5.7-4.93,14.08-4.26,22.25A42.18,42.18,0,0,1,139.12,89l1.3.08c.79.05,1.6.09,2.37.17l-1.11-4.79a27.94,27.94,0,0,1,1.6-17.36,25.84,25.84,0,0,0,2.1-8.46,25.54,25.54,0,0,0-2.91-13.88A67.54,67.54,0,0,1,135.32,20.53Z"/><path class="cls-1" d="M30.78,177.91a48.22,48.22,0,0,1-8.45-.68,1,1,0,0,1-.8-.88,1,1,0,0,1,.59-1,67.44,67.44,0,0,0,22.94-15.92,27.63,27.63,0,0,1,21.69-9l.62,0a25.8,25.8,0,0,0,15.71-4l7.18-4.64a1,1,0,0,1,1.54.73,45.43,45.43,0,0,0,5.75,17.42,1,1,0,0,1,.1.77,1,1,0,0,1-.49.61c-8.18,4.36-18.08,4.87-25,4.53a26,26,0,0,0-16.06,4.86C47.58,176.64,37.66,177.91,30.78,177.91Zm-4.67-2.23c6,.5,18.63.5,28.89-6.68a28,28,0,0,1,17.31-5.21c6.36.32,15.4-.11,23-3.83A46.88,46.88,0,0,1,90,144.27L84.17,148a27.84,27.84,0,0,1-16.91,4.38l-.59,0a25.74,25.74,0,0,0-20.14,8.37A67.67,67.67,0,0,1,26.11,175.68Z"/><path class="cls-1" d="M183.94,130.64a1,1,0,0,1-.41-.09,1,1,0,0,1-.58-.75,46.35,46.35,0,0,0-6.2-16.76,1,1,0,0,1-.1-.82,1,1,0,0,1,.55-.62c7.76-3.37,16.58-3.71,22.62-3.4a25.79,25.79,0,0,0,16-4.86c14.6-10.17,33-6.71,33.82-6.56a1,1,0,0,1,.8.88,1,1,0,0,1-.59,1c-11.61,5.1-18.87,11.46-22.91,15.9a27.7,27.7,0,0,1-21.72,9l-.62,0a25.76,25.76,0,0,0-15.72,4.06l-4.43,2.86A1,1,0,0,1,183.94,130.64ZM179.05,113a48.25,48.25,0,0,1,5.61,15l3.17-2a27.76,27.76,0,0,1,16.91-4.38l.59,0a25.74,25.74,0,0,0,20.16-8.36,67.65,67.65,0,0,1,20.41-14.9c-6-.5-18.62-.51-28.9,6.65a27.88,27.88,0,0,1-17.28,5.22C194.17,109.91,186.2,110.19,179.05,113Z"/><path class="cls-1" d="M90.88,132.05h-.17c-9.15-1.56-17.37-7.33-22.65-11.9A25.69,25.69,0,0,0,52.45,114C34.69,113,22.33,98.86,21.82,98.26a1,1,0,0,1-.1-1.18,1,1,0,0,1,1.1-.44,67.22,67.22,0,0,0,27.86,1.68,27.63,27.63,0,0,1,23.13,6.79,26,26,0,0,0,14.82,6.51l8.34.79a1,1,0,0,1,.8.54,1,1,0,0,1,0,1,45.66,45.66,0,0,0-5.87,17.27,1,1,0,0,1-1,.87ZM25.75,99.39c4.37,4.08,14.32,11.91,26.82,12.65a27.77,27.77,0,0,1,16.81,6.59c4.88,4.23,12.36,9.53,20.65,11.25a47.69,47.69,0,0,1,5.22-15.62l-6.8-.65a28,28,0,0,1-16-7A26,26,0,0,0,57.29,100a25.59,25.59,0,0,0-6.29.27A67.5,67.5,0,0,1,25.75,99.39Z"/><path class="cls-1" d="M249.43,177.38a.69.69,0,0,1-.25,0,67.8,67.8,0,0,0-27.86-1.68,27.66,27.66,0,0,1-23.11-6.76,25.63,25.63,0,0,0-14.84-6.54l-5.39-.52a1,1,0,0,1-.77-1.5,45.37,45.37,0,0,0,5.84-16.9,1,1,0,0,1,.44-.7,1,1,0,0,1,.82-.13c6.44,1.74,13,5.52,19.63,11.23A25.72,25.72,0,0,0,219.55,160c17.76,1,30.12,15.15,30.64,15.75a1,1,0,0,1-.76,1.66Zm-18.55-4.48a73.24,73.24,0,0,1,15.38,1.7c-4.37-4.07-14.32-11.91-26.83-12.63a27.77,27.77,0,0,1-16.81-6.62c-5.89-5.11-12-8.72-17.76-10.5A47.29,47.29,0,0,1,179.7,160l3.86.37a27.69,27.69,0,0,1,16,7A25.77,25.77,0,0,0,221,173.69,60.62,60.62,0,0,1,230.88,172.9Z"/><path class="cls-1" d="M169.08,103.19a1,1,0,0,1-.69-.28,1,1,0,0,1,0-1.41l82.4-85.7a1,1,0,0,1,1.42,0,1,1,0,0,1,0,1.41L169.8,102.89A1,1,0,0,1,169.08,103.19Z"/><path class="cls-1" d="M251.49,258.49a1,1,0,0,1-.73-.31l-82.4-85.69a1,1,0,0,1,1.45-1.39l82.4,85.7a1,1,0,0,1-.72,1.69Z"/><path class="cls-1" d="M104,105.06a1,1,0,0,1-.72-.31L19,17.18a1,1,0,0,1,0-1.41,1,1,0,0,1,1.42,0l84.2,87.57a1,1,0,0,1,0,1.41A1,1,0,0,1,104,105.06Z"/><path class="cls-2" d="M110.62,98.42a46.6,46.6,0,0,0-12.81,13.25c-7-5.39-11.47-13.83-14.06-20.34a26.7,26.7,0,0,0-11.5-13.08c-15.1-9-19.47-27.45-19.47-27.45A67.76,67.76,0,0,0,77.1,65.28a26.77,26.77,0,0,1,16.78,16,26.87,26.87,0,0,0,10.58,13.11Z"/><path class="cls-1" d="M97.81,112.67a1,1,0,0,1-.6-.2C89.93,106.9,85.37,98.1,82.82,91.7A25.62,25.62,0,0,0,71.74,79.11C56.45,70,52,51.8,51.81,51a1,1,0,0,1,.46-1.09,1,1,0,0,1,1.18.12,67,67,0,0,0,24,14.26A27.84,27.84,0,0,1,94.82,81,26,26,0,0,0,105,93.6l6.16,4a1,1,0,0,1,.45.83,1,1,0,0,1-.45.84,45.34,45.34,0,0,0-12.53,13,1,1,0,0,1-.66.43Zm-43-58.83c2,5.62,7.22,17.14,18,23.55A27.54,27.54,0,0,1,84.68,91c2.35,5.92,6.48,14,12.91,19.26a47.36,47.36,0,0,1,11.23-11.77l-4.9-3.17a28,28,0,0,1-11-13.6A25.73,25.73,0,0,0,76.79,66.23,67.49,67.49,0,0,1,54.77,53.84Z"/><path class="cls-2" d="M162.09,96.84c5.22,3.43,10.11,7.55,13.56,12.7,7-5.4,11-13.5,13.59-20a26.75,26.75,0,0,1,11.49-13.09c15.09-9,19.44-27.47,19.44-27.47a67.82,67.82,0,0,1-24.3,14.5A26.82,26.82,0,0,0,179.1,79.54a26.72,26.72,0,0,1-10.57,13.12Z"/><path class="cls-1" d="M175.65,110.54h-.16a1,1,0,0,1-.67-.43c-3-4.44-7.32-8.5-13.28-12.43a1,1,0,0,1-.45-.84,1,1,0,0,1,.46-.83L168,91.82a26,26,0,0,0,10.18-12.63,27.73,27.73,0,0,1,17.4-16.67A66.94,66.94,0,0,0,219.5,48.23a1,1,0,0,1,1.65,1c-.18.77-4.63,19-19.91,28.1a25.64,25.64,0,0,0-11.07,12.59c-2.38,6-6.42,14.7-13.91,20.45A1,1,0,0,1,175.65,110.54ZM163.9,96.85a47.54,47.54,0,0,1,12,11.24c6.58-5.44,10.25-13.36,12.45-18.93a27.62,27.62,0,0,1,11.91-13.58c10.76-6.42,16-17.95,18-23.58a67.28,67.28,0,0,1-22,12.42,26,26,0,0,0-9.84,5.9,25.77,25.77,0,0,0-6.3,9.57,28,28,0,0,1-11,13.61Z"/><path class="cls-2" d="M219,223.78a68,68,0,0,0-24.46-14.26,26.25,26.25,0,0,1-10.29-6,26.71,26.71,0,0,1-6.68-9.87,26.74,26.74,0,0,0-10.69-13l-5.37-3.26a47.84,47.84,0,0,0,13.78-12.48c6.08,5.32,9.91,12.68,12.33,18.62a26.87,26.87,0,0,0,11.61,13C214.43,205.34,219,223.78,219,223.78Z"/><path class="cls-1" d="M219,224.78a1,1,0,0,1-.66-.25,67,67,0,0,0-24.1-14.05A27.87,27.87,0,0,1,176.65,194a25.65,25.65,0,0,0-10.29-12.5L161,178.25a1,1,0,0,1-.48-.85,1,1,0,0,1,.48-.85,47,47,0,0,0,13.49-12.22,1,1,0,0,1,.7-.41,1,1,0,0,1,.77.24c5,4.39,9.25,10.79,12.6,19a25.82,25.82,0,0,0,11.18,12.51c15.38,8.91,20,27.1,20.24,27.87a1,1,0,0,1-1,1.24Zm-55.6-47.4,4,2.43a27.61,27.61,0,0,1,11.1,13.47,25.9,25.9,0,0,0,16.33,15.29A67.29,67.29,0,0,1,217,220.75c-2.07-5.61-7.42-17.08-18.24-23.36a27.73,27.73,0,0,1-12-13.47c-3-7.48-6.83-13.37-11.25-17.52A48.85,48.85,0,0,1,163.41,177.38Z"/><path class="cls-1" d="M102.38,239.12a1.13,1.13,0,0,1-.32-.05,1,1,0,0,1-.63-1.27l18.94-57a1,1,0,0,1,1.9.63l-19,57A1,1,0,0,1,102.38,239.12Z"/><path class="cls-1" d="M151.14,92.47a1.19,1.19,0,0,1-.32,0,1,1,0,0,1-.63-1.27l18.49-55.6a1,1,0,1,1,1.89.63L152.09,91.79A1,1,0,0,1,151.14,92.47Z"/><path class="cls-1" d="M88,233.13a.93.93,0,0,1-.45-.11,1,1,0,0,1-.44-1.34l27.15-53.8a1,1,0,0,1,1.79.9l-27.16,53.8A1,1,0,0,1,88,233.13Z"/><path class="cls-1" d="M157.47,95.44a1,1,0,0,1-.44-.1,1,1,0,0,1-.45-1.35L183.13,41.4a1,1,0,0,1,1.78.9L158.37,94.89A1,1,0,0,1,157.47,95.44Z"/><path class="cls-1" d="M169.63,239.12a1,1,0,0,1-.95-.69L150.58,184a1,1,0,0,1,1.9-.63l18.09,54.42a1,1,0,0,1-.63,1.27A1.12,1.12,0,0,1,169.63,239.12Z"/><path class="cls-1" d="M121.32,93.83a1,1,0,0,1-.95-.68l-18.94-57a1,1,0,1,1,1.89-.63l19,57a1,1,0,0,1-.64,1.26A.84.84,0,0,1,121.32,93.83Z"/><path class="cls-1" d="M184,233.13a1,1,0,0,1-.89-.55L156.58,180a1,1,0,0,1,1.79-.9l26.54,52.59a1,1,0,0,1-.44,1.34A.93.93,0,0,1,184,233.13Z"/><path class="cls-1" d="M114.76,95.92a1,1,0,0,1-.89-.55L87.09,42.3a1,1,0,0,1,1.78-.9l26.79,53.06a1,1,0,0,1-.45,1.35A1,1,0,0,1,114.76,95.92Z"/><path class="cls-1" d="M242.3,145.59h-.07l-57.93-4.14a1,1,0,0,1-.93-1.07,1,1,0,0,1,1.07-.93l57.93,4.14a1,1,0,0,1-.07,2Z"/><path class="cls-1" d="M90.61,134.75h-.07l-60.91-4.35a1,1,0,0,1,.14-2l60.92,4.36a1,1,0,0,1-.08,2Z"/><path class="cls-1" d="M184.35,134.36a1,1,0,0,1-.07-2L242.2,128a1,1,0,0,1,1.07.93,1,1,0,0,1-.92,1.07l-57.92,4.35Z"/><path class="cls-1" d="M29.73,146a1,1,0,0,1-.07-2l60-4.51a1,1,0,1,1,.15,2l-60,4.51Z"/><path class="cls-1" d="M90.48,138h-70a1,1,0,0,1,0-2h70a1,1,0,1,1,0,2Z"/><path class="cls-1" d="M251.49,138H185.56a1,1,0,0,1,0-2h65.93a1,1,0,0,1,0,2Z"/><path class="cls-1" d="M137.49,185a48,48,0,1,1,48-48A48.07,48.07,0,0,1,137.49,185Zm0-94a46,46,0,1,0,46,46A46.06,46.06,0,0,0,137.49,91Z"/><path class="cls-1" d="M137.49,161.31A24.32,24.32,0,1,1,161.8,137,24.34,24.34,0,0,1,137.49,161.31Zm0-46.63A22.32,22.32,0,1,0,159.8,137,22.34,22.34,0,0,0,137.49,114.68Z"/></g></svg>