<svg xmlns="http://www.w3.org/2000/svg" viewBox="0 0 272 272"><defs><style>.cls-1{fill:#474746;}.cls-2{fill:#e3cc57;}</style></defs><g id="OBJECTS"><path class="cls-1" d="M252.29,257.54H19.71a.5.5,0,0,1-.5-.5V15.94a.5.5,0,0,1,.5-.5H252.29a.5.5,0,0,1,.5.5V257A.5.5,0,0,1,252.29,257.54Zm-232.08-1H251.79V16.44H20.21Z"/><path class="cls-1" d="M19.71,257.54a.52.52,0,0,1-.35-.14.5.5,0,0,1,0-.71l84.24-87.61a.5.5,0,0,1,.71,0,.49.49,0,0,1,0,.7L20.07,257.39A.51.51,0,0,1,19.71,257.54Z"/><path class="cls-1" d="M135.83,257.05l-.11,0a.49.49,0,0,1-.39-.44,67.4,67.4,0,0,0-7.87-27,27.37,27.37,0,0,1-1.4-23.63,26,26,0,0,0,1.17-16.48l-1.84-7.31a.5.5,0,0,1,.59-.61,50,50,0,0,0,8.08,1.31,44,44,0,0,0,10.44-.4.52.52,0,0,1,.38.09.51.51,0,0,1,.2.35c.78,6.78-.51,14.52-3.85,23a26.15,26.15,0,0,0-.48,17.08h0c4.94,16.89-4.39,33.62-4.49,33.78A.49.49,0,0,1,135.83,257.05Zm-9.27-74.32,1.64,6.52A27,27,0,0,1,127,206.36a25.7,25.7,0,0,0-1.93,8.64,26.27,26.27,0,0,0,3.27,14.13,67.46,67.46,0,0,1,7.83,25.66c2.11-4.42,7.6-17.92,3.63-31.49a27.17,27.17,0,0,1,.51-17.73c3.19-8.11,4.48-15.51,3.84-22a46.73,46.73,0,0,1-10.13.32A47.28,47.28,0,0,1,126.56,182.73Z"/><path class="cls-2" d="M110.42,175c-5,7.05-12.77,11.53-19,14.41A26.92,26.92,0,0,0,79,201.58c-8.1,15.57-26.31,21-26.31,21a67.7,67.7,0,0,0,13.1-25.12A27,27,0,0,1,80.88,179.8a26.75,26.75,0,0,0,12.46-11.28l4.15-7.31C100.94,166.42,105.1,171.46,110.42,175Z"/><path class="cls-1" d="M52.66,223.09a.52.52,0,0,1-.42-.22.5.5,0,0,1,0-.59,67.16,67.16,0,0,0,13-24.94,27.46,27.46,0,0,1,15.39-18,26.33,26.33,0,0,0,12.24-11.07L97.06,161a.51.51,0,0,1,.42-.25.49.49,0,0,1,.43.22c4.17,6.3,8.23,10.62,12.78,13.6a.52.52,0,0,1,.22.32.53.53,0,0,1-.09.39c-4.08,5.73-10.35,10.5-19.18,14.57a26.37,26.37,0,0,0-12.22,12C71.31,217.39,53,223,52.8,223.07A.32.32,0,0,1,52.66,223.09Zm44.87-60.93-3.75,6.6a27.39,27.39,0,0,1-12.7,11.5A26.46,26.46,0,0,0,66.25,197.6a67.56,67.56,0,0,1-12.14,24c4.59-1.73,17.91-7.68,24.42-20.2A27.44,27.44,0,0,1,91.22,188.9c8.45-3.9,14.5-8.42,18.49-13.83C105.38,172.14,101.48,168,97.53,162.16Z"/><path class="cls-1" d="M125.74,91.45a.48.48,0,0,1-.29-.09.5.5,0,0,1-.21-.35c-1.06-8.83,1.73-18,4.25-24.12a26.2,26.2,0,0,0,.87-17.07c-4.57-17,5.12-33.51,5.21-33.67a.5.5,0,0,1,.55-.23.49.49,0,0,1,.38.45,67.6,67.6,0,0,0,7.3,27.17,27.22,27.22,0,0,1,.86,23.65,26.39,26.39,0,0,0-1.51,16.43l1.43,6.2a.5.5,0,0,1-.13.46.49.49,0,0,1-.45.14,33.3,33.3,0,0,0-3.66-.34c-.46,0-.9,0-1.32-.09-4.65-.33-8.72.46-13.18,1.45Zm9.9-73.3c-2.21,4.38-8,17.76-4.31,31.41a27.24,27.24,0,0,1-.91,17.72c-2.43,5.88-5.1,14.61-4.25,23.06A43.18,43.18,0,0,1,139.09,89l1.31.08c1,.06,2.07.12,3,.24l-1.27-5.47a27.51,27.51,0,0,1,1.57-17.06A26.12,26.12,0,0,0,142.91,44,67.81,67.81,0,0,1,135.64,18.15Z"/><path class="cls-1" d="M30.58,176.88a47.61,47.61,0,0,1-8.2-.63.49.49,0,0,1-.4-.43.5.5,0,0,1,.29-.52,67.79,67.79,0,0,0,23.12-16.05A27.22,27.22,0,0,1,66.7,150.4l.62,0a26.37,26.37,0,0,0,16-4.14l7.19-4.63a.46.46,0,0,1,.48,0,.48.48,0,0,1,.28.39,45.9,45.9,0,0,0,5.82,17.62.46.46,0,0,1,.05.38.53.53,0,0,1-.24.31c-8.09,4.31-17.9,4.81-24.7,4.47a26.42,26.42,0,0,0-16.38,4.95C47.39,175.65,37.42,176.88,30.58,176.88Zm-6.34-1.36c4.87.59,19.43,1.51,31-6.59a27.55,27.55,0,0,1,17-5.13c6.56.33,15.93-.13,23.72-4.12a46.78,46.78,0,0,1-5.59-16.75l-6.51,4.2a27.35,27.35,0,0,1-16.61,4.3l-.61,0a26.21,26.21,0,0,0-20.53,8.53A68.09,68.09,0,0,1,24.24,175.52Z"/><path class="cls-1" d="M184,129.63a.45.45,0,0,1-.2,0,.48.48,0,0,1-.29-.38,46.92,46.92,0,0,0-6.28-16.94.46.46,0,0,1-.05-.41.48.48,0,0,1,.28-.31c7.68-3.33,16.42-3.67,22.4-3.36a26.31,26.31,0,0,0,16.35-5c14.43-10,33.27-6.51,33.45-6.47a.49.49,0,0,1,.4.43.5.5,0,0,1-.29.52c-11.7,5.13-19,11.54-23.09,16a27.2,27.2,0,0,1-21.34,8.85l-.62,0a26.32,26.32,0,0,0-16,4.14l-4.43,2.86A.45.45,0,0,1,184,129.63Zm-5.62-17.39a47.51,47.51,0,0,1,6,16.06l3.8-2.45a27.25,27.25,0,0,1,16.62-4.29l.6,0a26.2,26.2,0,0,0,20.56-8.52,67.87,67.87,0,0,1,21.87-15.57c-4.87-.59-19.42-1.51-31,6.56a27.27,27.27,0,0,1-17,5.13C194,108.89,185.72,109.2,178.34,112.24Z"/><path class="cls-1" d="M90.86,131.05h-.09c-9-1.53-17.17-7.25-22.41-11.78A26.2,26.2,0,0,0,52.44,113c-17.55-1-30.17-15.47-30.29-15.61a.5.5,0,0,1,0-.59.49.49,0,0,1,.55-.22A67.73,67.73,0,0,0,50.72,98.3,27.1,27.1,0,0,1,57.38,98a27.53,27.53,0,0,1,16.07,7,26.49,26.49,0,0,0,15.12,6.64l8.34.79a.5.5,0,0,1,.4.27.51.51,0,0,1,0,.48,46.1,46.1,0,0,0-6,17.46.46.46,0,0,1-.19.34A.49.49,0,0,1,90.86,131.05ZM24.07,98c3.46,3.48,14.33,13.2,28.43,14A27.28,27.28,0,0,1,69,118.5c5,4.36,12.8,9.84,21.41,11.47A47.3,47.3,0,0,1,96,113.32l-7.57-.71a27.55,27.55,0,0,1-15.69-6.9A26.61,26.61,0,0,0,57.3,99a26.18,26.18,0,0,0-6.42.28A67.87,67.87,0,0,1,24.07,98Z"/><path class="cls-1" d="M249.47,176.39h-.12a68.31,68.31,0,0,0-28.07-1.7A27.14,27.14,0,0,1,198.57,168a26.17,26.17,0,0,0-15.14-6.67l-5.39-.52a.52.52,0,0,1-.4-.27.51.51,0,0,1,0-.48A46.15,46.15,0,0,0,183.57,143a.51.51,0,0,1,.22-.35.52.52,0,0,1,.4-.07c7.94,2.15,15,7.24,19.45,11.14A26.28,26.28,0,0,0,219.56,160c17.55,1,30.17,15.44,30.29,15.59a.5.5,0,0,1,.05.59A.52.52,0,0,1,249.47,176.39Zm-18.55-3.47a73.5,73.5,0,0,1,17,2.08c-3.46-3.48-14.33-13.2-28.44-14a27.22,27.22,0,0,1-16.52-6.5c-4.3-3.73-11-8.59-18.5-10.77a46.86,46.86,0,0,1-5.57,16.22l4.62.45a27.12,27.12,0,0,1,15.71,6.92A26.56,26.56,0,0,0,214.7,174a26.16,26.16,0,0,0,6.42-.28A61.92,61.92,0,0,1,230.92,172.92Z"/><path class="cls-1" d="M169.09,102.18a.49.49,0,0,1-.34-.14.5.5,0,0,1,0-.71l82.44-85.74a.51.51,0,0,1,.71,0,.5.5,0,0,1,0,.71L169.45,102A.49.49,0,0,1,169.09,102.18Z"/><path class="cls-1" d="M251.53,257.54a.51.51,0,0,1-.36-.15l-82.43-85.73a.5.5,0,0,1,.72-.7l82.43,85.73a.5.5,0,0,1,0,.71A.52.52,0,0,1,251.53,257.54Z"/><path class="cls-1" d="M103.94,104.05a.48.48,0,0,1-.36-.16L19.35,16.29a.5.5,0,0,1,0-.71.51.51,0,0,1,.71,0L104.3,103.2a.5.5,0,0,1,0,.71A.52.52,0,0,1,103.94,104.05Z"/><path class="cls-2" d="M110.61,97.9A46.76,46.76,0,0,0,97.8,111.16c-7-5.39-11.48-13.83-14.07-20.35A26.68,26.68,0,0,0,72.22,77.73c-15.1-9-19.48-27.46-19.48-27.46A68,68,0,0,0,77.07,64.75,26.74,26.74,0,0,1,93.86,80.81a26.89,26.89,0,0,0,10.59,13.11Z"/><path class="cls-1" d="M97.8,111.66a.5.5,0,0,1-.31-.1c-7.18-5.5-11.7-14.22-14.22-20.57A26.13,26.13,0,0,0,72,78.16c-15.12-9-19.67-27.59-19.71-27.78a.49.49,0,0,1,.23-.54.5.5,0,0,1,.59,0A67.51,67.51,0,0,0,77.23,64.27,27.56,27.56,0,0,1,87.65,70.5a27.27,27.27,0,0,1,6.68,10.13A26.5,26.5,0,0,0,104.72,93.5l6.16,4a.48.48,0,0,1,.23.42.5.5,0,0,1-.22.42,45.83,45.83,0,0,0-12.68,13.12.48.48,0,0,1-.33.22ZM53.69,51.77c1.47,4.67,6.64,18.29,18.79,25.53A27.07,27.07,0,0,1,84.19,90.62c2.43,6.11,6.73,14.44,13.49,19.82a46.8,46.8,0,0,1,12-12.53l-5.53-3.57A27.44,27.44,0,0,1,93.4,81,26.34,26.34,0,0,0,76.92,65.22,67.73,67.73,0,0,1,53.69,51.77Z"/><path class="cls-2" d="M162.1,96.32c5.22,3.44,10.11,7.56,13.56,12.71,7.05-5.4,11-13.5,13.61-20a26.68,26.68,0,0,1,11.49-13.1c15.1-9,19.45-27.48,19.45-27.48A68,68,0,0,1,195.9,62.94,26.78,26.78,0,0,0,179.12,79a26.87,26.87,0,0,1-10.57,13.12Z"/><path class="cls-1" d="M175.66,109.53h-.08a.49.49,0,0,1-.33-.21c-3-4.5-7.4-8.61-13.43-12.57a.5.5,0,0,1,0-.84l6.45-4.18a26.49,26.49,0,0,0,10.37-12.88,27.31,27.31,0,0,1,17.09-16.38,67.5,67.5,0,0,0,24.13-14.4.5.5,0,0,1,.59-.06.49.49,0,0,1,.23.55c0,.18-4.57,18.78-19.68,27.79a26.13,26.13,0,0,0-11.28,12.85c-2.36,6-6.36,14.56-13.76,20.24A.57.57,0,0,1,175.66,109.53ZM163,96.32a47.15,47.15,0,0,1,12.77,12c6.93-5.53,10.75-13.74,13-19.49a27.13,27.13,0,0,1,11.7-13.34c12.15-7.24,17.3-20.87,18.76-25.54a67.71,67.71,0,0,1-23.21,13.47,26.27,26.27,0,0,0-16.46,15.78,27.55,27.55,0,0,1-10.77,13.37Z"/><path class="cls-2" d="M219.05,223.32a67.9,67.9,0,0,0-24.48-14.27,26.44,26.44,0,0,1-10.29-6,26.85,26.85,0,0,1-6.69-9.87,26.72,26.72,0,0,0-10.69-13l-5.37-3.26a48,48,0,0,0,13.79-12.49c6.08,5.32,9.91,12.69,12.33,18.63a26.82,26.82,0,0,0,11.61,13C214.46,204.87,219.05,223.32,219.05,223.32Z"/><path class="cls-1" d="M219.05,223.82a.51.51,0,0,1-.33-.13,67.5,67.5,0,0,0-24.3-14.16,27.45,27.45,0,0,1-17.29-16.18,26.14,26.14,0,0,0-10.49-12.75l-5.37-3.26a.5.5,0,0,1,0-.85,47.36,47.36,0,0,0,13.64-12.35.52.52,0,0,1,.35-.21.49.49,0,0,1,.39.12c4.95,4.34,9.14,10.67,12.47,18.82a26.31,26.31,0,0,0,11.39,12.75c15.21,8.82,20,27.39,20,27.57a.51.51,0,0,1-.22.55A.5.5,0,0,1,219.05,223.82Zm-56.57-46.91,4.68,2.84A27.07,27.07,0,0,1,178.06,193a26.46,26.46,0,0,0,16.66,15.59,67.55,67.55,0,0,1,23.36,13.24c-1.52-4.67-6.85-18.25-19.07-25.33a27.24,27.24,0,0,1-11.82-13.24c-3.17-7.78-7.13-13.86-11.79-18.08A48.59,48.59,0,0,1,162.48,176.91Z"/><path class="cls-1" d="M102.36,238.16l-.16,0a.49.49,0,0,1-.31-.63l19-57a.5.5,0,0,1,.63-.31.5.5,0,0,1,.32.63l-19,57A.5.5,0,0,1,102.36,238.16Z"/><path class="cls-1" d="M151.14,91.45l-.16,0a.5.5,0,0,1-.31-.64l18.49-55.62a.5.5,0,1,1,1,.31L151.62,91.11A.5.5,0,0,1,151.14,91.45Z"/><path class="cls-1" d="M88,232.17a.59.59,0,0,1-.22,0,.5.5,0,0,1-.22-.68l27.16-53.81a.5.5,0,1,1,.89.45L88.41,231.89A.49.49,0,0,1,88,232.17Z"/><path class="cls-1" d="M157.48,94.42a.44.44,0,0,1-.22,0,.49.49,0,0,1-.22-.67l26.55-52.61a.5.5,0,0,1,.9.45L157.93,94.15A.5.5,0,0,1,157.48,94.42Z"/><path class="cls-1" d="M169.64,238.16a.5.5,0,0,1-.48-.34l-18.1-54.45a.5.5,0,0,1,.95-.31l18.1,54.44a.49.49,0,0,1-.31.63Z"/><path class="cls-1" d="M121.31,92.82a.5.5,0,0,1-.47-.35l-19-57a.5.5,0,1,1,1-.31l19,57a.51.51,0,0,1-.32.63A.45.45,0,0,1,121.31,92.82Z"/><path class="cls-1" d="M184,232.17a.5.5,0,0,1-.45-.28L157,179.28a.49.49,0,0,1,.22-.67.5.5,0,0,1,.67.22l26.56,52.61a.52.52,0,0,1-.22.68A.64.64,0,0,1,184,232.17Z"/><path class="cls-1" d="M114.75,94.9a.49.49,0,0,1-.44-.28L87.52,41.54a.49.49,0,0,1,.22-.67.49.49,0,0,1,.67.22L115.2,94.17a.5.5,0,0,1-.22.67A.46.46,0,0,1,114.75,94.9Z"/><path class="cls-1" d="M242.34,144.59h0l-58-4.14a.5.5,0,0,1,.07-1l58,4.14a.5.5,0,0,1,0,1Z"/><path class="cls-1" d="M90.6,133.75h0l-60.94-4.35a.5.5,0,0,1,.07-1l60.94,4.36a.49.49,0,0,1,.46.53A.5.5,0,0,1,90.6,133.75Z"/><path class="cls-1" d="M184.37,133.35a.51.51,0,0,1-.5-.46.52.52,0,0,1,.47-.54L242.28,128a.48.48,0,0,1,.53.46.5.5,0,0,1-.46.54l-57.94,4.35Z"/><path class="cls-1" d="M29.69,145a.5.5,0,0,1-.5-.47.49.49,0,0,1,.46-.53l60-4.51a.5.5,0,1,1,.08,1l-60,4.51Z"/><path class="cls-1" d="M90.47,137h-70a.5.5,0,0,1,0-1h70a.5.5,0,0,1,0,1Z"/><path class="cls-1" d="M251.53,137H185.58a.5.5,0,0,1,0-1h65.95a.5.5,0,0,1,0,1Z"/><path class="cls-1" d="M137.49,184A47.53,47.53,0,1,1,185,136.49,47.57,47.57,0,0,1,137.49,184Zm0-94.05A46.53,46.53,0,1,0,184,136.49,46.57,46.57,0,0,0,137.49,90Z"/><path class="cls-1" d="M137.49,160.32a23.83,23.83,0,1,1,23.82-23.83A23.85,23.85,0,0,1,137.49,160.32Zm0-46.65a22.83,22.83,0,1,0,22.82,22.82A22.85,22.85,0,0,0,137.49,113.67Z"/></g></svg>